<?xml version="1.0" encoding="utf-8"?>
<!-- Generator: Adobe Illustrator 14.0.0, SVG Export Plug-In . SVG Version: 6.00 Build 43363)  -->
<!DOCTYPE svg PUBLIC "-//W3C//DTD SVG 1.1//EN" "http://www.w3.org/Graphics/SVG/1.1/DTD/svg11.dtd">
<svg version="1.1" id="Layer_1" xmlns="http://www.w3.org/2000/svg" xmlns:xlink="http://www.w3.org/1999/xlink" x="0px" y="0px"
	 width="36px" height="36px" viewBox="-243 457 36 36" enable-background="new -243 457 36 36" xml:space="preserve">
<g transform="translate(0.000000,350.000000) scale(0.100000,-0.100000)">
	<path d="M-2260.185-1085.508c-2.583-2.744-2.583-6.943-2.036-163.535c0.542-177.275-0.142-165.225,8.965-165.225
		c9.512,0,8.833-12.969,8.833,166.025c0,154.482-0.132,161.289-2.446,163.271C-2250.4-1081.826-2257.06-1082.236-2260.185-1085.508z
		"/>
	<path d="M-2268.476-1096.123c-1.631-1.963-10.869-25.811-15.352-39.697c-2.036-6.543-3.262-14.941-4.077-29.492
		c-0.679-11.123-2.173-26.719-3.398-34.717c-1.494-9.17-2.168-21.084-1.899-32.754c0.542-34.59,0.137-43.115-2.852-57.656
		c-1.768-8.379-3.262-21.875-3.672-32.373c-1.084-27.246,0.815-28.291,9.785-6.025c2.852,7.07,5.43,12.588,5.708,12.324
		c0.269-0.264,2.578-7.871,5.024-17.041c2.583-9.17,5.024-17.031,5.435-17.422c2.173-2.236,3.667,3.271,5.708,21.885
		c1.904,16.777,2.446,38.77,2.856,126.309c0.405,62.764,0.132,106.406-0.684,107.188
		C-2266.572-1094.941-2267.661-1095.078-2268.476-1096.123z"/>
	<path d="M-2282.197-1404.043c-0.952-0.918-1.631-4.062-1.631-7.08c0-11.533,11.685-18.877,29.893-18.877
		c18.203,0,29.893,7.344,29.893,19.014c0,3.271-0.815,6.152-2.036,7.207c-2.178,1.699-4.756,0.781-4.756-1.982
		c0-2.881-8.291-11.396-13.184-13.232c-12.5-5.098-28.257,1.055-32.881,12.979
		C-2278.393-1402.08-2279.751-1401.689-2282.197-1404.043z"/>
</g>
</svg>
