<?xml version="1.0" standalone="no"?>
<!DOCTYPE svg PUBLIC "-//W3C//DTD SVG 20010904//EN"
 "http://www.w3.org/TR/2001/REC-SVG-20010904/DTD/svg10.dtd">
<svg version="1.0" xmlns="http://www.w3.org/2000/svg"
 width="500.000000pt" height="500.000000pt" viewBox="0 0 500.000000 500.000000"
 preserveAspectRatio="xMidYMid meet">
<metadata>
Created by potrace 1.12, written by Peter Selinger 2001-2015
</metadata>
<g transform="translate(0.000000,500.000000) scale(0.100000,-0.100000)"
fill="#000000" stroke="none">
<path d="M2554 4039 c-18 -21 -19 -50 -15 -1073 3 -1161 -1 -1086 66 -1086 70
0 65 -80 65 1092 0 1009 -1 1056 -18 1071 -26 24 -75 21 -98 -4z"/>
<path d="M1056 3961 c-4 -7 6 -27 24 -47 17 -20 96 -109 177 -199 80 -90 152
-173 160 -185 13 -19 10 -24 -40 -78 -101 -107 -327 -370 -327 -379 0 -15 314
-23 912 -23 l548 0 0 455 0 455 -477 0 c-263 0 -589 3 -724 7 -185 4 -248 3
-253 -6z"/>
<path d="M2392 1958 c-7 -7 -12 -31 -12 -54 0 -88 86 -144 220 -144 134 0 220
56 220 145 0 25 -6 47 -15 55 -16 13 -35 6 -35 -15 0 -22 -61 -87 -97 -101
-92 -39 -208 8 -242 99 -11 30 -21 33 -39 15z"/>
</g>
</svg>
