<?xml version="1.0" standalone="no"?>
<!DOCTYPE svg PUBLIC "-//W3C//DTD SVG 20010904//EN" "http://www.w3.org/TR/2001/REC-SVG-20010904/DTD/svg10.dtd">
<svg version="1.0" xmlns="http://www.w3.org/2000/svg" width="350.000000pt" height="350.000000pt" viewBox="0 0 350.000000 350.000000" preserveAspectRatio="xMidYMid meet">
	<g transform="translate(0.000000,350.000000) scale(0.100000,-0.100000)" fill="#000000" stroke="none">
		<path d="M1734 3069 c-19 -21 -19 -53 -15 -1248 4 -1353 -1 -1261 66 -1261 70 0 65 -99 65 1267 0 1179 -1 1231 -18 1246 -26 24 -75 21 -98 -4z"/>
		<path d="M1673 2988 c-12 -15 -80 -197 -113 -303 -15 -50 -24 -114 -30 -225 -5 -85 -16 -204 -25 -265 -11 -70 -16 -161 -14 -250 4 -264 1 -329 -21 -440 -13 -64 -24 -167 -27 -247 -8 -208 6 -216 72 -46 21 54 40 96 42 94 2 -2 19 -60 37 -130 19 -70 37 -130 40 -133 16 -17 27 25 42 167 14 128 18 296 21 964 3 479 1 812 -5 818 -5 5 -13 4 -19 -4z"/>
		<path d="M1572 638 c-7 -7 -12 -31 -12 -54 0 -88 86 -144 220 -144 134 0 220 56 220 145 0 25 -6 47 -15 55 -16 13 -35 6 -35 -15 0 -22 -61 -87 -97 -101 -92 -39 -208 8 -242 99 -11 30 -21 33 -39 15z"/>
	</g>
</svg>
