<?xml version="1.0" encoding="utf-8"?>
<!-- Generator: Adobe Illustrator 14.0.0, SVG Export Plug-In . SVG Version: 6.00 Build 43363)  -->
<!DOCTYPE svg PUBLIC "-//W3C//DTD SVG 1.1//EN" "http://www.w3.org/Graphics/SVG/1.1/DTD/svg11.dtd">
<svg version="1.1" id="Capa_1" xmlns="http://www.w3.org/2000/svg" xmlns:xlink="http://www.w3.org/1999/xlink" x="0px" y="0px"
	 width="24.812px" height="32px" viewBox="0 600 24.812 32" enable-background="new 0 600 24.812 32" xml:space="preserve">
<g>
	<g>
		<g>
			<path fill="red" d="M0,600v24.812h7.806l4.6,7.188l4.601-7.188h7.806V600H0z M10.397,604.842
				c0.554,0,1.004,0.658,1.004,1.469c0,0.81-0.449,1.469-1.004,1.469c-0.554,0-1.004-0.659-1.004-1.469
				C9.393,605.498,9.842,604.842,10.397,604.842z M8.269,605.562c0.389-0.055,0.771,0.361,0.853,0.934
				c0.083,0.57-0.167,1.078-0.558,1.133c-0.391,0.057-0.772-0.361-0.853-0.932C7.627,606.127,7.878,605.618,8.269,605.562z
				 M6.703,606.248c0.329-0.078,0.685,0.249,0.799,0.729c0.112,0.479-0.063,0.932-0.389,1.009c-0.331,0.077-0.687-0.25-0.799-0.729
				C6.2,606.778,6.376,606.324,6.703,606.248z M5.216,607.103c0.278-0.11,0.633,0.129,0.792,0.535
				c0.163,0.405,0.069,0.821-0.21,0.931c-0.278,0.11-0.631-0.129-0.792-0.533C4.845,607.629,4.939,607.212,5.216,607.103z
				 M4.075,608.877c-0.126-0.318-0.052-0.648,0.167-0.734s0.498,0.104,0.624,0.422c0.127,0.32,0.051,0.648-0.166,0.735
				C4.481,609.385,4.202,609.197,4.075,608.877z M10.263,622.816c-1.387,0.223-2.729-0.975-3.001-2.673
				c-0.126-0.78-0.249-2.366-0.407-3.06l-1.192-3.352c-0.068-0.297-0.853-1.707-0.976-2.322c-0.253-1.248,0.554-2.465,1.802-2.718
				l2.181-0.44c0.328-0.067,1.301-0.131,1.301-0.131c1.336,0,1.98,0.692,1.98,2.029c0,0.775-0.827,1.885-1.371,1.969
				c-0.546,0.085-0.494-0.114-0.865-0.114c-0.532,0-1.05,0.456-1.05,0.987v0.045l0.014,0.382c0.014,0.236-0.044,1.333,0.636,2.725
				c0.679,1.392,2.228,1.035,2.637,3.667C12.063,621.803,11.648,622.593,10.263,622.816z M19.751,604.748
				c0.158-0.406,0.512-0.647,0.791-0.535c0.278,0.107,0.372,0.525,0.21,0.93c-0.158,0.406-0.515,0.646-0.792,0.536
				C19.684,605.568,19.587,605.15,19.751,604.748z M18.254,604.086c0.115-0.48,0.47-0.807,0.799-0.729
				c0.328,0.077,0.501,0.529,0.389,1.009c-0.113,0.48-0.469,0.807-0.799,0.729C18.316,605.019,18.142,604.565,18.254,604.086z
				 M16.635,603.604c0.083-0.571,0.465-0.988,0.854-0.933c0.389,0.055,0.638,0.563,0.558,1.133c-0.081,0.57-0.462,0.988-0.852,0.934
				C16.803,604.684,16.554,604.175,16.635,603.604z M15.362,601.95c0.555,0,1.004,0.657,1.004,1.469c0,0.811-0.448,1.47-1.004,1.47
				c-0.554,0-1.003-0.659-1.003-1.47C14.357,602.607,14.806,601.95,15.362,601.95z M21.074,608.521
				c-0.125,0.615-0.909,2.026-0.978,2.321l-1.191,3.353c-0.16,0.693-0.283,2.28-0.406,3.061c-0.272,1.696-1.616,2.892-3.003,2.673
				c-1.385-0.225-1.802-1.016-1.687-3.007c0.413-2.632,1.959-2.275,2.639-3.667c0.68-1.391,0.62-2.487,0.634-2.723l0.015-0.383
				v-0.047c0-0.53-0.518-0.985-1.049-0.985c-0.373,0-0.319,0.198-0.865,0.113c-0.547-0.083-1.373-1.192-1.373-1.968
				c0-1.337,0.645-2.029,1.981-2.029c0,0,0.972,0.063,1.301,0.131l2.178,0.441C20.518,606.055,21.325,607.272,21.074,608.521z
				 M21.682,605.986c-0.127,0.319-0.406,0.507-0.624,0.42c-0.22-0.085-0.292-0.414-0.167-0.733c0.127-0.319,0.406-0.509,0.624-0.421
				C21.734,605.338,21.808,605.667,21.682,605.986z"/>
		</g>
	</g>
</g>
</svg>
