<?xml version="1.0" encoding="utf-8"?>
<!-- Generator: Adobe Illustrator 14.0.0, SVG Export Plug-In . SVG Version: 6.00 Build 43363)  -->
<!DOCTYPE svg PUBLIC "-//W3C//DTD SVG 1.1//EN" "http://www.w3.org/Graphics/SVG/1.1/DTD/svg11.dtd">
<svg version="1.1" id="Layer_1" xmlns="http://www.w3.org/2000/svg" xmlns:xlink="http://www.w3.org/1999/xlink" x="0px" y="0px"
	 width="22.128px" height="32.75px" viewBox="-236.064 458.625 22.128 32.75"
	 enable-background="new -236.064 458.625 22.128 32.75" xml:space="preserve">
<g transform="translate(0.000000,350.000000) scale(0.100000,-0.100000)">
	<path fill="#FF3433" stroke="#000000" stroke-width="0.75" d="M-2175.239-1092.471c-2.295-2.529-2.295-6.396-1.812-150.732
		c0.483-163.408-0.122-152.295,7.974-152.295c8.452,0,7.852-11.963,7.852,153.027c0,142.393-0.122,148.672-2.178,150.488
		C-2166.542-1089.082-2172.46-1089.453-2175.239-1092.471z"/>
	<path fill="#FF3433" stroke="#000000" stroke-width="0.75" d="M-2356.167-1101.885c-0.479-0.85,0.728-3.262,2.9-5.684
		c2.056-2.412,11.597-13.164,21.377-24.033c9.663-10.869,18.359-20.889,19.326-22.344c1.572-2.295,1.206-2.9-4.829-9.424
		c-12.202-12.92-39.497-44.688-39.497-45.771c0-1.816,37.925-2.773,110.151-2.773h66.187v54.951v54.951h-57.612
		c-31.763,0-71.138,0.361-87.446,0.85C-2347.954-1100.683-2355.561-1100.801-2356.167-1101.885z"/>
	<path fill="#FF3433" stroke="#000000" stroke-width="0.75" d="M-2194.804-1386.084c-0.845-0.84-1.45-3.74-1.45-6.523
		c0-10.625,10.386-17.393,26.572-17.393s26.572,6.768,26.572,17.52c0,3.018-0.723,5.674-1.812,6.641
		c-1.934,1.572-4.229,0.723-4.229-1.816c0-2.656-7.368-10.508-11.714-12.197c-11.113-4.707-25.122,0.967-29.229,11.963
		C-2191.42-1384.267-2192.631-1383.906-2194.804-1386.084z"/>
</g>
</svg>
