<?xml version="1.0" encoding="utf-8"?>
<!-- Generator: Adobe Illustrator 14.0.0, SVG Export Plug-In . SVG Version: 6.00 Build 43363)  -->
<!DOCTYPE svg PUBLIC "-//W3C//DTD SVG 1.1//EN" "http://www.w3.org/Graphics/SVG/1.1/DTD/svg11.dtd">
<svg version="1.1" id="Capa_1" xmlns="http://www.w3.org/2000/svg" xmlns:xlink="http://www.w3.org/1999/xlink" x="0px" y="0px"
	 width="24.811px" height="32px" viewBox="0 600 24.811 32" enable-background="new 0 600 24.811 32" xml:space="preserve">
<g>
	<g>
		<g>
			<path fill="blue" d="M0,600v24.811h7.805l4.6,7.189l4.6-7.189h7.807V600H0z M9.701,621.18c-0.977,0-1.768-0.339-1.768-0.758
				c0-0.293,0.392-0.545,0.96-0.67v-15.695h1.616v15.695c0.567,0.125,0.96,0.377,0.96,0.67
				C11.469,620.841,10.678,621.18,9.701,621.18z M11.209,609.583v0.028h-0.096L11.209,609.583v-5.526l8.793,2.828L11.209,609.583z
				 M11.209,609.613v-0.03l-0.096,0.029L11.209,609.613L11.209,609.613z"/>
		</g>
	</g>
</g>
</svg>
