<?xml version="1.0" encoding="utf-8"?>
<!-- Generator: Adobe Illustrator 14.0.0, SVG Export Plug-In . SVG Version: 6.00 Build 43363)  -->
<!DOCTYPE svg PUBLIC "-//W3C//DTD SVG 1.1//EN" "http://www.w3.org/Graphics/SVG/1.1/DTD/svg11.dtd">
<svg version="1.1" id="Layer_1" xmlns="http://www.w3.org/2000/svg" xmlns:xlink="http://www.w3.org/1999/xlink" x="0px" y="0px"
	 width="36px" height="36px" viewBox="-243 457 36 36" enable-background="new -243 457 36 36" xml:space="preserve">
<g transform="translate(0.000000,350.000000) scale(0.100000,-0.100000)">
	<path fill="#00FF43" stroke="#FFFFFF" stroke-width="0.25" d="M-2249.829-1087.07c-2.192-2.666-2.192-6.719-1.729-158.086
		c0.459-171.357-0.117-159.717,7.651-159.717c8.12,0,7.534-12.539,7.534,160.469c0,149.355-0.112,155.957-2.09,157.842
		C-2241.469-1083.525-2247.148-1083.896-2249.829-1087.07z"/>
	<path fill="#00FF43" stroke="#FFFFFF" stroke-width="0.25" d="M-2423.525-1096.933c-0.454-0.898,0.693-3.428,2.778-5.967
		c1.978-2.549,11.143-13.809,20.527-25.215c9.282-11.396,17.632-21.904,18.56-23.447c1.509-2.373,1.167-3.018-4.644-9.863
		c-11.714-13.545-37.915-46.855-37.915-47.998c0-1.914,36.406-2.92,105.747-2.92h63.545v57.646v57.607h-55.312
		c-30.493,0-68.296,0.391-83.95,0.918C-2415.639-1095.683-2422.944-1095.801-2423.525-1096.933z"/>
	<path fill="#00FF43" stroke="#FFFFFF" stroke-width="0.25" d="M-2268.603-1394.98c-0.815-0.879-1.401-3.926-1.401-6.836
		c0-11.143,9.98-18.252,25.518-18.252s25.513,7.109,25.513,18.369c0,3.174-0.693,5.967-1.748,6.973
		c-1.841,1.66-4.048,0.742-4.048-1.914c0-2.793-7.08-11.025-11.25-12.773c-10.669-4.961-24.126,1.006-28.057,12.529
		C-2265.351-1393.066-2266.513-1392.695-2268.603-1394.98z"/>
</g>
</svg>
